<?xml version="1.0" encoding="UTF-8" standalone="no"?>
<!-- Created with Inkscape (http://www.inkscape.org/) -->

<svg
   xmlns:dc="http://purl.org/dc/elements/1.1/"
   xmlns:cc="http://creativecommons.org/ns#"
   xmlns:rdf="http://www.w3.org/1999/02/22-rdf-syntax-ns#"
   xmlns:svg="http://www.w3.org/2000/svg"
   xmlns="http://www.w3.org/2000/svg"
   xmlns:sodipodi="http://sodipodi.sourceforge.net/DTD/sodipodi-0.dtd"
   xmlns:inkscape="http://www.inkscape.org/namespaces/inkscape"
   width="228pt"
   height="28pt"
   viewBox="0 0 285.00001 34.999999"
   id="svg3454"
   version="1.1"
   inkscape:version="0.91 r13725"
   sodipodi:docname="slatepermutate-alpha.svg">
  <defs
     id="defs3456" />
  <sodipodi:namedview
     id="base"
     pagecolor="#ffffff"
     bordercolor="#666666"
     borderopacity="1.0"
     inkscape:pageopacity="0.0"
     inkscape:pageshadow="2"
     inkscape:zoom="1"
     inkscape:cx="194.87816"
     inkscape:cy="-41.760625"
     inkscape:document-units="pt"
     inkscape:current-layer="layer1"
     showgrid="false"
     fit-margin-top="2"
     fit-margin-left="2"
     fit-margin-right="2"
     fit-margin-bottom="2"
     units="pt"
     inkscape:window-width="1536"
     inkscape:window-height="801"
     inkscape:window-x="-8"
     inkscape:window-y="-8"
     inkscape:window-maximized="1" />
  <metadata
     id="metadata3459">
    <rdf:RDF>
      <cc:Work
         rdf:about="">
        <dc:format>image/svg+xml</dc:format>
        <dc:type
           rdf:resource="http://purl.org/dc/dcmitype/StillImage" />
        <dc:title></dc:title>
      </cc:Work>
    </rdf:RDF>
  </metadata>
  <g
     inkscape:label="Layer 1"
     inkscape:groupmode="layer"
     id="layer1"
     transform="translate(56.87816,-443.60158)">
    <g
       transform="translate(-238.79721,277.0501)"
       style="font-style:normal;font-weight:normal;font-size:42.13130951px;line-height:125%;font-family:'Bitstream Vera Sans';letter-spacing:0px;word-spacing:0px;fill:#4d4d4d;fill-opacity:1;stroke:none"
       id="text12334-2">
      <path
         inkscape:connector-curvature="0"
         d="m 201.14518,190.70812 c 0,-8.34199 -10.57496,-8.46839 -10.57496,-12.51299 0,-1.26394 1.13754,-2.23296 2.35935,-2.23296 1.51673,0 3.28624,0.84262 4.2974,1.98017 l 3.49689,-3.11772 c -1.76951,-2.31722 -5.05575,-4.00247 -8.00494,-4.00247 -4.55019,0 -8.29987,2.78066 -8.29987,7.5415 0,7.6679 10.53282,9.05823 10.53282,12.30234 0,1.64312 -1.13754,2.65428 -2.73853,2.65428 -1.39033,0 -3.41264,-1.26394 -4.50805,-2.06444 l -2.78067,4.38166 c 1.85378,1.55886 4.80297,2.99132 7.24659,2.99132 4.67657,0 8.97397,-2.90706 8.97397,-7.92069 z"
         style="font-style:normal;font-variant:normal;font-weight:900;font-stretch:normal;font-size:42.13130951px;line-height:125%;font-family:'Delicious Heavy';-inkscape-font-specification:'Delicious Heavy, Heavy';text-align:start;writing-mode:lr-tb;text-anchor:start;fill:#4d4d4d;fill-opacity:1"
         id="path3386" />
      <path
         inkscape:connector-curvature="0"
         d="m 204.87775,197.99684 5.89838,0 c 0,0 -1.30607,-3.58116 -1.30607,-8.97397 l 0,-20.30729 -6.02478,0 0,20.30729 c 0,4.67658 0.6741,7.24659 1.43247,8.97397 z"
         style="font-style:normal;font-variant:normal;font-weight:900;font-stretch:normal;font-size:42.13130951px;line-height:125%;font-family:'Delicious Heavy';-inkscape-font-specification:'Delicious Heavy, Heavy';text-align:start;writing-mode:lr-tb;text-anchor:start;fill:#4d4d4d;fill-opacity:1"
         id="path3388" />
      <path
         inkscape:connector-curvature="0"
         d="m 230.92872,197.74405 -0.92689,-2.86493 c -0.16852,0.0843 -0.37918,0.16853 -0.58984,0.16853 -0.50557,0 -0.50557,-0.71623 -0.50557,-1.09541 l 0,-10.99628 c 0,-4.38165 -3.37051,-6.23543 -7.37298,-6.23543 -2.78067,0 -5.85625,1.4746 -7.83642,3.3705 l 2.14869,3.45477 c 1.51673,-1.17967 3.15985,-1.93804 5.09789,-1.93804 0.96902,0 2.27509,0.54771 2.27509,1.68525 l 0,0.88476 -9.26889,3.70756 c -0.71623,1.30607 -1.51672,2.99132 -1.51672,4.46592 0,4.21313 2.31722,6.27756 6.44609,6.27756 2.10656,0 4.38165,-1.26394 5.14002,-3.32837 0.25278,1.89591 1.47459,3.32837 3.66542,3.32837 1.13755,0 2.23296,-0.37918 3.24411,-0.88476 z m -7.58363,-9.5638 0,1.13754 c 0,2.19083 -1.09542,4.42379 -3.53903,4.42379 -0.84263,0 -1.64313,-0.58984 -1.64313,-1.4746 0,-0.6741 0.16853,-1.47459 0.37919,-2.10656 l 4.80297,-1.98017 z"
         style="font-style:normal;font-variant:normal;font-weight:900;font-stretch:normal;font-size:42.13130951px;line-height:125%;font-family:'Delicious Heavy';-inkscape-font-specification:'Delicious Heavy, Heavy';text-align:start;writing-mode:lr-tb;text-anchor:start;fill:#4d4d4d;fill-opacity:1"
         id="path3390" />
      <path
         inkscape:connector-curvature="0"
         d="m 241.53725,198.29176 c 0.6741,-0.21066 2.48575,-0.96902 2.48575,-0.96902 l -1.30607,-4.171 c 0,0 -1.13755,0.63197 -2.06443,0.29492 -0.58984,-0.16853 -0.67411,-1.22181 -0.67411,-1.4746 l 0,-9.77446 3.37051,0 0,-4.8451 -3.45477,0 0,-3.70756 -5.85625,0 0,3.70756 -1.98017,0 0,4.38166 1.81165,0.46344 0,10.78562 c 0,2.73853 1.26393,5.64559 5.05575,5.64559 1.09542,0 1.85378,-0.0843 2.61214,-0.33705 z"
         style="font-style:normal;font-variant:normal;font-weight:900;font-stretch:normal;font-size:42.13130951px;line-height:125%;font-family:'Delicious Heavy';-inkscape-font-specification:'Delicious Heavy, Heavy';text-align:start;writing-mode:lr-tb;text-anchor:start;fill:#4d4d4d;fill-opacity:1"
         id="path3392" />
      <path
         inkscape:connector-curvature="0"
         d="m 263.38826,188.22238 c 0,-1.13755 -0.0421,-2.23296 -0.0843,-3.37051 -0.1264,-4.42378 -3.74969,-8.13134 -8.21561,-8.13134 -5.85625,0 -9.85872,4.8451 -9.85872,10.4907 0,5.64559 2.61214,11.45971 9.10036,11.45971 2.57001,0 5.77199,-1.39033 7.79429,-3.07558 l -1.76951,-3.79182 c -1.55886,1.13754 -3.91821,1.81165 -5.81412,1.81165 -2.40149,0 -3.20198,-2.78067 -3.20198,-4.71871 0,-0.21066 0,-0.46345 0.0421,-0.6741 l 12.00742,0 z m -5.72986,-3.87608 -5.85625,0 c 0.16853,-1.4746 1.26394,-3.58116 2.99132,-3.58116 1.89591,0 2.8228,1.93804 2.86493,3.58116 z"
         style="font-style:normal;font-variant:normal;font-weight:900;font-stretch:normal;font-size:42.13130951px;line-height:125%;font-family:'Delicious Heavy';-inkscape-font-specification:'Delicious Heavy, Heavy';text-align:start;writing-mode:lr-tb;text-anchor:start;fill:#4d4d4d;fill-opacity:1"
         id="path3394" />
      <path
         inkscape:connector-curvature="0"
         d="m 284.18862,180.1753 c 0,-6.69888 -5.05575,-8.72118 -10.91201,-8.72118 l -6.99379,0 0,26.54272 6.27756,0 0,-9.10036 c 0.63197,0.37918 1.64312,0.58984 2.31722,0.58984 5.09789,0 9.31102,-4.21313 9.31102,-9.31102 z m -6.27756,-0.0421 c 0,2.44361 -1.01115,4.21313 -3.66543,4.21313 -0.42131,0 -1.26394,-0.33705 -1.68525,-0.50558 l 0,-7.12019 0.92689,0 c 2.44362,0 4.42379,0.54771 4.42379,3.41264 z"
         style="fill:#000000"
         id="path3396" />
      <path
         inkscape:connector-curvature="0"
         d="m 303.38009,188.22238 c 0,-1.13755 -0.0421,-2.23296 -0.0843,-3.37051 -0.12639,-4.42378 -3.74969,-8.13134 -8.2156,-8.13134 -5.85626,0 -9.85873,4.8451 -9.85873,10.4907 0,5.64559 2.61214,11.45971 9.10036,11.45971 2.57001,0 5.77199,-1.39033 7.79429,-3.07558 l -1.76951,-3.79182 c -1.55886,1.13754 -3.91821,1.81165 -5.81412,1.81165 -2.40149,0 -3.20198,-2.78067 -3.20198,-4.71871 0,-0.21066 0,-0.46345 0.0421,-0.6741 l 12.00742,0 z m -5.72985,-3.87608 -5.85626,0 c 0.16853,-1.4746 1.26394,-3.58116 2.99133,-3.58116 1.89591,0 2.82279,1.93804 2.86493,3.58116 z"
         style="fill:#000000"
         id="path3398" />
      <path
         inkscape:connector-curvature="0"
         d="m 316.72321,183.33515 0.80049,-5.98265 c 0,0 -0.96902,-0.63197 -2.19082,-0.63197 -1.05329,0 -2.86493,2.1487 -2.86493,2.1487 l 0,-1.51673 -6.15117,0 0,20.64434 6.10904,0 0,-14.66169 c 0,0 0.58983,-0.63197 1.64312,-0.63197 1.17967,0 2.65427,0.63197 2.65427,0.63197 z"
         style="fill:#000000"
         id="path3400" />
      <path
         inkscape:connector-curvature="0"
         d="m 341.63796,197.99684 6.10904,0 0,-15.04088 c 0,-3.3705 -1.55886,-6.23543 -6.82527,-6.23543 -2.06444,0 -5.26642,2.1487 -5.26642,2.1487 0,0 -1.17967,-2.1487 -4.8451,-2.1487 -1.51672,0 -3.70755,1.26394 -4.8451,2.1487 l 0,-1.55886 -6.10904,0 0,20.68647 6.10904,0 0,-14.5353 c 0.8005,-0.58984 1.68525,-1.68525 3.79182,-1.68525 0.6741,0 1.01115,0.33705 1.01115,1.72738 l 0,14.49317 6.10904,0 0,-14.87235 c 0,0 1.64312,-1.39033 3.70756,-1.39033 0.80049,0 1.05328,0.5477 1.05328,1.64312 l 0,14.61956 z"
         style="fill:#000000"
         id="path3402" />
      <path
         inkscape:connector-curvature="0"
         d="m 368.70667,198.62881 1.93804,-3.20198 c 0,0 -1.05328,-0.6741 -1.05328,-1.72738 l 0,-16.34695 -6.10904,0 0,14.61956 c 0,0 -2.40149,1.64313 -3.74969,1.64313 -0.92689,0 -1.3482,-0.25279 -1.3482,-1.26394 l 0,-14.99875 -6.10904,0 0,14.99875 c 0,4.00247 1.85377,6.27756 6.53035,6.27756 1.93804,0 4.33952,-1.30607 5.89838,-2.44361 0.75837,1.09541 2.10657,2.23295 4.00248,2.44361 z"
         style="fill:#000000"
         id="path3404" />
      <path
         inkscape:connector-curvature="0"
         d="m 382.08466,198.29176 c 0.6741,-0.21066 2.48575,-0.96902 2.48575,-0.96902 l -1.30607,-4.171 c 0,0 -1.13755,0.63197 -2.06444,0.29492 -0.58983,-0.16853 -0.6741,-1.22181 -0.6741,-1.4746 l 0,-9.77446 3.37051,0 0,-4.8451 -3.45477,0 0,-3.70756 -5.85625,0 0,3.70756 -1.98017,0 0,4.38166 1.81164,0.46344 0,10.78562 c 0,2.73853 1.26394,5.64559 5.05576,5.64559 1.09542,0 1.85378,-0.0843 2.61214,-0.33705 z"
         style="fill:#000000"
         id="path3406" />
      <path
         inkscape:connector-curvature="0"
         d="m 404.06207,197.74405 -0.92689,-2.86493 c -0.16853,0.0843 -0.37918,0.16853 -0.58984,0.16853 -0.50557,0 -0.50557,-0.71623 -0.50557,-1.09541 l 0,-10.99628 c 0,-4.38165 -3.37051,-6.23543 -7.37298,-6.23543 -2.78067,0 -5.85626,1.4746 -7.83643,3.3705 l 2.1487,3.45477 c 1.51673,-1.17967 3.15985,-1.93804 5.09789,-1.93804 0.96902,0 2.27509,0.54771 2.27509,1.68525 l 0,0.88476 -9.26889,3.70756 c -0.71623,1.30607 -1.51673,2.99132 -1.51673,4.46592 0,4.21313 2.31723,6.27756 6.44609,6.27756 2.10657,0 4.38166,-1.26394 5.14002,-3.32837 0.25279,1.89591 1.4746,3.32837 3.66543,3.32837 1.13754,0 2.23296,-0.37918 3.24411,-0.88476 z m -7.58364,-9.5638 0,1.13754 c 0,2.19083 -1.09541,4.42379 -3.53903,4.42379 -0.84262,0 -1.64312,-0.58984 -1.64312,-1.4746 0,-0.6741 0.16853,-1.47459 0.37918,-2.10656 l 4.80297,-1.98017 z"
         style="fill:#000000"
         id="path3408" />
      <path
         inkscape:connector-curvature="0"
         d="m 414.6706,198.29176 c 0.6741,-0.21066 2.48575,-0.96902 2.48575,-0.96902 l -1.30607,-4.171 c 0,0 -1.13755,0.63197 -2.06444,0.29492 -0.58984,-0.16853 -0.6741,-1.22181 -0.6741,-1.4746 l 0,-9.77446 3.37051,0 0,-4.8451 -3.45477,0 0,-3.70756 -5.85625,0 0,3.70756 -1.98017,0 0,4.38166 1.81164,0.46344 0,10.78562 c 0,2.73853 1.26394,5.64559 5.05576,5.64559 1.09541,0 1.85378,-0.0843 2.61214,-0.33705 z"
         style="fill:#000000"
         id="path3410" />
      <path
         inkscape:connector-curvature="0"
         d="m 436.52161,188.22238 c 0,-1.13755 -0.0421,-2.23296 -0.0843,-3.37051 -0.12639,-4.42378 -3.74969,-8.13134 -8.21561,-8.13134 -5.85625,0 -9.85872,4.8451 -9.85872,10.4907 0,5.64559 2.61214,11.45971 9.10036,11.45971 2.57001,0 5.77199,-1.39033 7.79429,-3.07558 l -1.76951,-3.79182 c -1.55886,1.13754 -3.91821,1.81165 -5.81412,1.81165 -2.40149,0 -3.20198,-2.78067 -3.20198,-4.71871 0,-0.21066 0,-0.46345 0.0421,-0.6741 l 12.00742,0 z m -5.72986,-3.87608 -5.85625,0 c 0.16853,-1.4746 1.26394,-3.58116 2.99132,-3.58116 1.89591,0 2.8228,1.93804 2.86493,3.58116 z"
         style="fill:#000000"
         id="path3412" />
    </g>
    <g
       transform="translate(-238.79721,277.0501)"
       style="font-style:normal;font-variant:normal;font-weight:900;font-stretch:normal;font-size:11.39483356px;line-height:125%;font-family:'Delicious Heavy';-inkscape-font-specification:'Delicious Heavy, Heavy';text-align:start;letter-spacing:0px;word-spacing:0px;writing-mode:lr-tb;text-anchor:start;fill:#000000;fill-opacity:1;stroke:none"
       id="text12340-2">
      <path
         inkscape:connector-curvature="0"
         d="m 444.79652,196.98902 -0.25069,-0.77485 c -0.0456,0.0228 -0.10255,0.0456 -0.15952,0.0456 -0.13674,0 -0.13674,-0.19371 -0.13674,-0.29627 l 0,-2.97405 c 0,-1.18506 -0.91159,-1.68643 -1.9941,-1.68643 -0.75206,0 -1.58388,0.39882 -2.11944,0.91158 l 0.58114,0.93438 c 0.41021,-0.31905 0.85461,-0.52416 1.37877,-0.52416 0.26209,0 0.61533,0.14813 0.61533,0.45579 l 0,0.23929 -2.50687,1.00275 c -0.19371,0.35324 -0.41021,0.80903 -0.41021,1.20785 0,1.13948 0.62671,1.69783 1.74341,1.69783 0.56974,0 1.18506,-0.34184 1.39017,-0.90019 0.0684,0.51277 0.39882,0.90019 0.99135,0.90019 0.30766,0 0.60392,-0.10255 0.8774,-0.23929 z m -2.05107,-2.58663 0,0.30766 c 0,0.59253 -0.29627,1.19646 -0.95717,1.19646 -0.22789,0 -0.44439,-0.15953 -0.44439,-0.39882 0,-0.18232 0.0456,-0.39882 0.10255,-0.56974 l 1.29901,-0.53556 z"
         id="path3415" />
      <path
         inkscape:connector-curvature="0"
         d="m 445.76277,197.05739 1.59527,0 c 0,0 -0.35324,-0.96856 -0.35324,-2.4271 l 0,-5.49231 -1.62946,0 0,5.49231 c 0,1.26483 0.18232,1.95991 0.38743,2.4271 z"
         id="path3417" />
      <path
         inkscape:connector-curvature="0"
         d="m 450.82581,197.22831 c 1.97131,0 2.37013,-1.88015 2.37013,-3.15637 0,-1.18506 -0.64951,-2.76894 -2.13084,-2.76894 -0.61532,0 -1.18506,0.58113 -1.18506,0.58113 l 0.0114,-0.41021 -1.66364,0 0,7.57756 1.66364,0 0,-2.22199 c 0,0 0.39882,0.39882 0.93438,0.39882 z m -0.0456,-4.55793 c 0.71788,0 0.72927,0.99135 0.72927,1.49272 0,0.48998 0.0228,1.73202 -0.72927,1.73202 -0.82043,0 -0.8888,-0.9002 -0.8888,-1.53831 l 0,-1.21924 c 0.25069,-0.21651 0.42161,-0.46719 0.8888,-0.46719 z"
         id="path3419" />
      <path
         inkscape:connector-curvature="0"
         d="m 457.13428,197.05739 1.65225,0 0,-4.03377 c 0,-0.83183 -0.26208,-1.72062 -1.73202,-1.72062 -0.45579,0 -0.94577,0.33045 -1.29901,0.58113 l 0,-2.74615 -1.65225,0 0,7.91941 1.65225,0 0,-3.93122 c 0.29627,-0.18232 0.58114,-0.45579 1.0939,-0.45579 0.21651,0 0.28488,0.12534 0.28488,0.35324 l 0,4.03377 z"
         id="path3421" />
      <path
         inkscape:connector-curvature="0"
         d="m 464.60395,196.98902 -0.25069,-0.77485 c -0.0456,0.0228 -0.10255,0.0456 -0.15953,0.0456 -0.13674,0 -0.13674,-0.19371 -0.13674,-0.29627 l 0,-2.97405 c 0,-1.18506 -0.91158,-1.68643 -1.99409,-1.68643 -0.75206,0 -1.58388,0.39882 -2.11944,0.91158 l 0.58114,0.93438 c 0.41021,-0.31905 0.85461,-0.52416 1.37877,-0.52416 0.26208,0 0.61532,0.14813 0.61532,0.45579 l 0,0.23929 -2.50686,1.00275 c -0.19371,0.35324 -0.41022,0.80903 -0.41022,1.20785 0,1.13948 0.62672,1.69783 1.74341,1.69783 0.56975,0 1.18507,-0.34184 1.39017,-0.90019 0.0684,0.51277 0.39882,0.90019 0.99135,0.90019 0.30766,0 0.60393,-0.10255 0.87741,-0.23929 z m -2.05107,-2.58663 0,0.30766 c 0,0.59253 -0.29627,1.19646 -0.95717,1.19646 -0.2279,0 -0.4444,-0.15953 -0.4444,-0.39882 0,-0.18232 0.0456,-0.39882 0.10256,-0.56974 l 1.29901,-0.53556 z"
         id="path3423" />
    </g>
  </g>
</svg>
